<?xml version="1.0" encoding="UTF-8" standalone="no"?>
<!DOCTYPE svg PUBLIC "-//W3C//DTD SVG 1.1//EN" "http://www.w3.org/Graphics/SVG/1.1/DTD/svg11.dtd">

<svg version="1.1" xmlns="http://www.w3.org/2000/svg" xmlns:xlink="http://www.w3.org/1999/xlink" preserveAspectRatio="xMidYMid meet" viewBox="0 0 640 640" width="480" height="480">

	<defs>
		<path d="M40.37 160.31L107.23 66.11L134.14 94.37L163.75 48.61L249.88 160.31L509.63 160.31L560.6 190.23L576.75 257.62L445.16 257.62L435.74 233.4L377.87 257.62L40.37 257.62L40.37 160.31Z" 

			class="bingus-moment"
			id="d8WyGLzaY"></path>

		<path d="M121.12 294.9L380.56 294.9L415.52 319.12L447.85 323.16L447.85 294.9L601.28 294.9L640 319.12L640 346.25L631.93 364.73L640 378.75L602.62 392.2L121.12 392.2L121.12 294.9Z" 


			id="bksRC9Zmk"></path>

		<path d="M18.84 441.6L55.83 429.48L528.3 429.48L536.37 446.83L536.37 503.35L469.08 521.41L413.82 526.79L225.41 526.79L171.57 549.67L36.87 570.31L0 591.39L18.84 441.6Z" 


			id="b4NLyZCiZ"></path>
	</defs>

	<g>
		<g>
			<g>
				<use xlink:href="#d8WyGLzaY" opacity="1" fill="#ffffff" fill-opacity="1"></use>
			</g>
			<g>
				<use xlink:href="#bksRC9Zmk" opacity="1" fill="#ffffff" fill-opacity="1"></use>
			</g>
			<g>
				<use xlink:href="#b4NLyZCiZ" opacity="1" fill="#ffffff" fill-opacity="1"></use>
			</g>
		</g>
	</g>

</svg>